<svg xmlns="http://www.w3.org/2000/svg" viewBox="0 0 840 795" width="840" height="795" font-family="Helvetica, Arial, sans-serif" font-size="12"><rect width="100%" height="100%" fill="#ffffff"/><rect x="15" y="30" width="810" height="595" rx="6" ry="6" fill="#dceaf7" stroke="#6c8ebf" stroke-width="1.5"/>
<text x="420.0" y="48" text-anchor="middle" font-size="14" font-weight="bold">ecu_variant_8_switch_ecu_with_host_ext_PHY</text>
<rect x="40" y="65" width="760" height="170" rx="5" ry="5" fill="#cadcf2" stroke="#6c8ebf" stroke-width="1.2"/>
<text x="420.0" y="83" text-anchor="middle" font-size="13" font-weight="bold">ecu1_controller1</text>
<rect x="60" y="100" width="720" height="115" rx="4" ry="4" fill="#b6cded" stroke="#6c8ebf" stroke-width="1"/>
<text x="420.0" y="114" text-anchor="middle" font-size="11" font-weight="bold">ecu1_controller1_iface1</text>
<rect x="86.0" y="125" width="216" height="20" rx="1" ry="1" fill="#f8cecc" stroke="#b85450" stroke-width="1"/>
<text x="194.0" y="139" text-anchor="middle" font-size="10" font-weight="bold">ecu1_controller1_iface1_viface1</text>
<rect x="86.0" y="145" width="216" height="28" rx="1" ry="1" fill="#ffffff" stroke="#b85450" stroke-width="1"/>
<text x="92.0" y="163" text-anchor="start" font-size="10">addresses: [10.0.10.1]</text>
<rect x="248.0" y="152.0" width="58" height="22" rx="11.0" ry="11.0" fill="#f8cecc" stroke="#b85450" stroke-width="1.5"/>
<text x="277.0" y="167.0" text-anchor="middle" font-size="10" font-weight="bold">VLAN 10</text>
<rect x="312.0" y="125" width="216" height="20" rx="1" ry="1" fill="#e1d5e7" stroke="#9673a6" stroke-width="1"/>
<text x="420.0" y="139" text-anchor="middle" font-size="10" font-weight="bold">ecu1_controller1_iface1_viface2</text>
<rect x="312.0" y="145" width="216" height="28" rx="1" ry="1" fill="#ffffff" stroke="#9673a6" stroke-width="1"/>
<text x="318.0" y="163" text-anchor="start" font-size="10">addresses: [10.0.20.1]</text>
<rect x="474.0" y="152.0" width="58" height="22" rx="11.0" ry="11.0" fill="#e1d5e7" stroke="#9673a6" stroke-width="1.5"/>
<text x="503.0" y="167.0" text-anchor="middle" font-size="10" font-weight="bold">VLAN 20</text>
<rect x="538.0" y="125" width="216" height="20" rx="1" ry="1" fill="#d5e8d4" stroke="#82b366" stroke-width="1"/>
<text x="646.0" y="139" text-anchor="middle" font-size="10" font-weight="bold">ecu1_controller1_iface1_viface3</text>
<rect x="538.0" y="145" width="216" height="28" rx="1" ry="1" fill="#ffffff" stroke="#82b366" stroke-width="1"/>
<text x="544.0" y="163" text-anchor="start" font-size="10">addresses: [10.0.30.1]</text>
<rect x="700.0" y="152.0" width="58" height="22" rx="11.0" ry="11.0" fill="#d5e8d4" stroke="#82b366" stroke-width="1.5"/>
<text x="729.0" y="167.0" text-anchor="middle" font-size="10" font-weight="bold">VLAN 30</text>
<rect x="40" y="295" width="760" height="320" rx="4" ry="4" fill="#fff2cc" stroke="#d6b656" stroke-width="1.2"/>
<text x="120" y="313" text-anchor="middle" font-size="13" font-weight="bold">ecu1_switch1</text>
<rect x="372.0" y="345" width="96" height="22" rx="2" ry="2" fill="#ffe6cc" stroke="#d79b00" stroke-width="1"/>
<text x="420.0" y="360.0" text-anchor="middle" font-size="10" font-weight="bold">switch1_port0</text>
<line x1="420.0" y1="367" x2="420.0" y2="433.0" stroke="#000000" stroke-width="1.0"/>
<rect x="480.0" y="323.0" width="100" height="66" rx="4" ry="4" fill="#fff8e1" stroke="#d2912a" stroke-width="0.7"/>
<text x="530.0" y="335.0" text-anchor="middle" font-size="9">switch1_port0.vlans</text>
<rect x="501.0" y="340.0" width="58" height="22" rx="11.0" ry="11.0" fill="#f8cecc" stroke="#b85450" stroke-width="1.5"/>
<text x="530.0" y="355.0" text-anchor="middle" font-size="10" font-weight="bold">VLAN 10</text>
<rect x="501.0" y="366.0" width="58" height="22" rx="11.0" ry="11.0" fill="#d5e8d4" stroke="#82b366" stroke-width="1.5"/>
<text x="530.0" y="381.0" text-anchor="middle" font-size="10" font-weight="bold">VLAN 30</text>
<rect x="355.0" y="433.0" width="130" height="64" rx="4" ry="4" fill="#ffffff" stroke="#000000" stroke-width="1"/>
<text x="420.0" y="463.0" text-anchor="middle" font-size="11">switch</text>
<text x="420.0" y="479.0" text-anchor="middle" font-size="11">silicon</text>
<text x="420.0" y="429.0" text-anchor="middle" font-size="9">silicon_port0</text>
<rect x="192.0" y="557.0" width="96" height="22" rx="2" ry="2" fill="#ffe6cc" stroke="#d79b00" stroke-width="1"/>
<text x="240.0" y="572.0" text-anchor="middle" font-size="10" font-weight="bold">switch1_port1</text>
<line x1="240.0" y1="557.0" x2="240.0" y2="497.0" stroke="#000000" stroke-width="1.0"/>
<line x1="240.0" y1="497.0" x2="355.0" y2="497.0" stroke="#000000" stroke-width="1.0"/>
<text x="234.0" y="530.0" text-anchor="end" font-size="9">silicon_port1</text>
<rect x="80.0" y="535.0" width="100" height="66" rx="4" ry="4" fill="#fff8e1" stroke="#d2912a" stroke-width="0.7"/>
<text x="130.0" y="547.0" text-anchor="middle" font-size="9">switch1_port1.vlans</text>
<rect x="101.0" y="552.0" width="58" height="22" rx="11.0" ry="11.0" fill="#f8cecc" stroke="#b85450" stroke-width="1.5"/>
<text x="130.0" y="567.0" text-anchor="middle" font-size="10" font-weight="bold">VLAN 10</text>
<rect x="101.0" y="578.0" width="58" height="22" rx="11.0" ry="11.0" fill="#e1d5e7" stroke="#9673a6" stroke-width="1.5"/>
<text x="130.0" y="593.0" text-anchor="middle" font-size="10" font-weight="bold">VLAN 20</text>
<rect x="552.0" y="557.0" width="96" height="22" rx="2" ry="2" fill="#ffe6cc" stroke="#d79b00" stroke-width="1"/>
<text x="600.0" y="572.0" text-anchor="middle" font-size="10" font-weight="bold">switch1_port2</text>
<line x1="600.0" y1="557.0" x2="600.0" y2="497.0" stroke="#000000" stroke-width="1.0"/>
<line x1="600.0" y1="497.0" x2="485.0" y2="497.0" stroke="#000000" stroke-width="1.0"/>
<text x="606.0" y="530.0" text-anchor="start" font-size="9">silicon_port2</text>
<rect x="660.0" y="535.0" width="100" height="66" rx="4" ry="4" fill="#fff8e1" stroke="#d2912a" stroke-width="0.7"/>
<text x="710.0" y="547.0" text-anchor="middle" font-size="9">switch1_port2.vlans</text>
<rect x="681.0" y="552.0" width="58" height="22" rx="11.0" ry="11.0" fill="#f8cecc" stroke="#b85450" stroke-width="1.5"/>
<text x="710.0" y="567.0" text-anchor="middle" font-size="10" font-weight="bold">VLAN 10</text>
<rect x="681.0" y="578.0" width="58" height="22" rx="11.0" ry="11.0" fill="#e1d5e7" stroke="#9673a6" stroke-width="1.5"/>
<text x="710.0" y="593.0" text-anchor="middle" font-size="10" font-weight="bold">VLAN 20</text>
<rect x="60" y="375" width="280" height="110" rx="4" ry="4" fill="#b6cded" stroke="#6c8ebf" stroke-width="1"/>
<text x="200.0" y="389" text-anchor="middle" font-size="11" font-weight="bold">ecu1_switch1_controlleriface1</text>
<rect x="70" y="400" width="260" height="20" rx="1" ry="1" fill="#d5e8d4" stroke="#82b366" stroke-width="1"/>
<text x="200.0" y="414" text-anchor="middle" font-size="10" font-weight="bold">ecu1_switch1_controlleriface1_viface1</text>
<rect x="70" y="420" width="260" height="28" rx="1" ry="1" fill="#ffffff" stroke="#82b366" stroke-width="1"/>
<text x="76" y="438" text-anchor="start" font-size="10">addresses: [10.0.30.100]</text>
<rect x="276.0" y="427.0" width="58" height="22" rx="11.0" ry="11.0" fill="#d5e8d4" stroke="#82b366" stroke-width="1.5"/>
<text x="305" y="442.0" text-anchor="middle" font-size="10" font-weight="bold">VLAN 30</text>
<line x1="420.0" y1="215" x2="420.0" y2="345" stroke="#000000" stroke-width="1.0" stroke-dasharray="4 3"/>
<text x="432.0" y="284.0" text-anchor="start" font-size="11">mii | <tspan font-weight="bold">rmii</tspan> | sgmii | rgmii</text>
<line x1="240.0" y1="625" x2="240.0" y2="655" stroke="#000000" stroke-width="1.0" stroke-dasharray="4 3"/>
<text x="252.0" y="644.0" text-anchor="start" font-size="11">mii | <tspan font-weight="bold">rmii</tspan> | sgmii | rgmii</text>
<rect x="210.0" y="655" width="60" height="28" rx="3" ry="3" fill="#ffe6cc" stroke="#d79b00" stroke-width="1"/>
<text x="240.0" y="673.0" text-anchor="middle" font-size="12" font-weight="bold">PHY</text>
<line x1="240.0" y1="683" x2="240.0" y2="752" stroke="#000000" stroke-width="1.0" stroke-dasharray="4 3"/>
<text x="180.0" y="721.5" text-anchor="end" font-size="11"><tspan font-weight="bold">master</tspan> | slave</text>
<text x="258.0" y="721.5" text-anchor="start" font-size="11"><tspan font-weight="bold">100baset1</tspan> | 1000baset1 | 10baset1s</text>
<rect x="185.0" y="752" width="110" height="28" rx="3" ry="3" fill="#d5e8d4" stroke="#82b366" stroke-width="1"/>
<text x="240.0" y="770.0" text-anchor="middle" font-size="12" font-weight="bold">ecu1_port1</text>
<line x1="600.0" y1="625" x2="600.0" y2="655" stroke="#000000" stroke-width="1.0" stroke-dasharray="4 3"/>
<text x="612.0" y="644.0" text-anchor="start" font-size="11">mii | <tspan font-weight="bold">rmii</tspan> | sgmii | rgmii</text>
<rect x="570.0" y="655" width="60" height="28" rx="3" ry="3" fill="#ffe6cc" stroke="#d79b00" stroke-width="1"/>
<text x="600.0" y="673.0" text-anchor="middle" font-size="12" font-weight="bold">PHY</text>
<line x1="600.0" y1="683" x2="600.0" y2="752" stroke="#000000" stroke-width="1.0" stroke-dasharray="4 3"/>
<text x="540.0" y="721.5" text-anchor="end" font-size="11"><tspan font-weight="bold">master</tspan> | slave</text>
<text x="618.0" y="721.5" text-anchor="start" font-size="11"><tspan font-weight="bold">100baset1</tspan> | 1000baset1 | 10baset1s</text>
<rect x="545.0" y="752" width="110" height="28" rx="3" ry="3" fill="#d5e8d4" stroke="#82b366" stroke-width="1"/>
<text x="600.0" y="770.0" text-anchor="middle" font-size="12" font-weight="bold">ecu1_port2</text></svg>