<svg xmlns="http://www.w3.org/2000/svg" viewBox="0 0 720 720" width="720" height="720" font-family="Helvetica, Arial, sans-serif" font-size="12"><rect width="100%" height="100%" fill="#ffffff"/><rect x="15" y="30" width="690" height="470" rx="6" ry="6" fill="#dceaf7" stroke="#6c8ebf" stroke-width="1.5"/>
<text x="360.0" y="48" text-anchor="middle" font-size="14" font-weight="bold">ecu_variant_5_single_controller_single_iface_multiple_vms</text>
<rect x="45" y="65" width="630" height="415" rx="5" ry="5" fill="#cadcf2" stroke="#6c8ebf" stroke-width="1.2"/>
<text x="360.0" y="83" text-anchor="middle" font-size="13" font-weight="bold">ecu1_controller1</text>
<rect x="75" y="115" width="230" height="100" rx="3" ry="3" fill="#b6cded" stroke="#6c8ebf" stroke-width="1"/>
<text x="190.0" y="131" text-anchor="middle" font-size="11" font-weight="bold">ecu1_c1_vm1</text>
<rect x="85" y="145" width="210" height="20" rx="1" ry="1" fill="#e1d5e7" stroke="#9673a6" stroke-width="1"/>
<text x="190.0" y="159" text-anchor="middle" font-size="10" font-weight="bold">ecu1_c1_vm1_viface1</text>
<rect x="85" y="165" width="210" height="28" rx="1" ry="1" fill="#ffffff" stroke="#9673a6" stroke-width="1"/>
<text x="91" y="183" text-anchor="start" font-size="10">addresses: [10.0.20.1]</text>
<rect x="241.0" y="172.0" width="58" height="22" rx="11.0" ry="11.0" fill="#e1d5e7" stroke="#9673a6" stroke-width="1.5"/>
<text x="270" y="187.0" text-anchor="middle" font-size="10" font-weight="bold">VLAN 20</text>
<rect x="415" y="115" width="230" height="100" rx="3" ry="3" fill="#b6cded" stroke="#6c8ebf" stroke-width="1"/>
<text x="530.0" y="131" text-anchor="middle" font-size="11" font-weight="bold">ecu1_c1_vm2</text>
<rect x="425" y="145" width="210" height="20" rx="1" ry="1" fill="#e1d5e7" stroke="#9673a6" stroke-width="1"/>
<text x="530.0" y="159" text-anchor="middle" font-size="10" font-weight="bold">ecu1_c1_vm2_viface1</text>
<rect x="425" y="165" width="210" height="28" rx="1" ry="1" fill="#ffffff" stroke="#9673a6" stroke-width="1"/>
<text x="431" y="183" text-anchor="start" font-size="10">addresses: [10.0.20.2]</text>
<rect x="581.0" y="172.0" width="58" height="22" rx="11.0" ry="11.0" fill="#e1d5e7" stroke="#9673a6" stroke-width="1.5"/>
<text x="610" y="187.0" text-anchor="middle" font-size="10" font-weight="bold">VLAN 20</text>
<rect x="280.0" y="245" width="160" height="50" rx="8" ry="8" fill="#fff2cc" stroke="#d6b656" stroke-width="1"/>
<text x="360.0" y="274.0" text-anchor="middle" font-size="12">virtual_switch</text>
<rect x="235.0" y="325" width="250" height="90" rx="4" ry="4" fill="#b6cded" stroke="#6c8ebf" stroke-width="1"/>
<text x="360.0" y="339" text-anchor="middle" font-size="11" font-weight="bold">ecu1_controller1_iface1</text>
<rect x="245.0" y="350" width="230" height="20" rx="1" ry="1" fill="#f8cecc" stroke="#b85450" stroke-width="1"/>
<text x="360.0" y="364" text-anchor="middle" font-size="10" font-weight="bold">ecu1_controller1_iface1_viface1</text>
<rect x="245.0" y="370" width="230" height="28" rx="1" ry="1" fill="#ffffff" stroke="#b85450" stroke-width="1"/>
<text x="251.0" y="388" text-anchor="start" font-size="10">addresses: [10.0.10.1]</text>
<rect x="421.0" y="377.0" width="58" height="22" rx="11.0" ry="11.0" fill="#f8cecc" stroke="#b85450" stroke-width="1.5"/>
<text x="450.0" y="392.0" text-anchor="middle" font-size="10" font-weight="bold">VLAN 10</text>
<line x1="190.0" y1="215" x2="190.0" y2="245" stroke="#000000" stroke-width="1.0"/>
<line x1="190.0" y1="245" x2="280.0" y2="245" stroke="#000000" stroke-width="1.0"/>
<line x1="530.0" y1="215" x2="530.0" y2="245" stroke="#000000" stroke-width="1.0"/>
<line x1="530.0" y1="245" x2="440.0" y2="245" stroke="#000000" stroke-width="1.0"/>
<line x1="360.0" y1="295" x2="360.0" y2="325" stroke="#000000" stroke-width="1.0"/>
<line x1="360.0" y1="500" x2="360.0" y2="530" stroke="#000000" stroke-width="1.0" stroke-dasharray="4 3"/>
<text x="372.0" y="519.0" text-anchor="start" font-size="11">mii | <tspan font-weight="bold">rmii</tspan> | sgmii | rgmii</text>
<rect x="330.0" y="530" width="60" height="28" rx="3" ry="3" fill="#ffe6cc" stroke="#d79b00" stroke-width="1"/>
<text x="360.0" y="548.0" text-anchor="middle" font-size="12" font-weight="bold">PHY</text>
<line x1="360.0" y1="558" x2="360.0" y2="677" stroke="#000000" stroke-width="1.0" stroke-dasharray="4 3"/>
<text x="300.0" y="621.5" text-anchor="end" font-size="11"><tspan font-weight="bold">master</tspan> | slave</text>
<text x="378.0" y="621.5" text-anchor="start" font-size="11"><tspan font-weight="bold">100baset1</tspan> | 1000baset1 | 10baset1s</text>
<rect x="305.0" y="677" width="110" height="28" rx="3" ry="3" fill="#d5e8d4" stroke="#82b366" stroke-width="1"/>
<text x="360.0" y="695.0" text-anchor="middle" font-size="12" font-weight="bold">ecu1_port1</text></svg>