<svg xmlns="http://www.w3.org/2000/svg" viewBox="0 0 470 460" width="470" height="460" font-family="Helvetica, Arial, sans-serif" font-size="12"><rect width="100%" height="100%" fill="#ffffff"/><rect x="15" y="30" width="440" height="290" rx="6" ry="6" fill="#dceaf7" stroke="#6c8ebf" stroke-width="1.5"/>
<text x="235.0" y="48" text-anchor="middle" font-size="14" font-weight="bold">ecu_variant_2_single_controller_single_iface_int_PHY</text>
<rect x="40" y="65" width="390" height="195" rx="5" ry="5" fill="#cadcf2" stroke="#6c8ebf" stroke-width="1.2"/>
<text x="235.0" y="83" text-anchor="middle" font-size="13" font-weight="bold">ecu1_controller1</text>
<rect x="60" y="100" width="350" height="140" rx="4" ry="4" fill="#b6cded" stroke="#6c8ebf" stroke-width="1"/>
<text x="235.0" y="118" text-anchor="middle" font-size="12" font-weight="bold">ecu1_controller1_iface1</text>
<rect x="80" y="135" width="310" height="20" rx="1" ry="1" fill="#c5a9c8" stroke="#7e5285" stroke-width="1"/>
<text x="235.0" y="149" text-anchor="middle" font-size="10" font-weight="bold">ecu1_controller1_iface1_viface1</text>
<rect x="80" y="155" width="310" height="28" rx="1" ry="1" fill="#ffffff" stroke="#7e5285" stroke-width="1"/>
<text x="86" y="173" text-anchor="start" font-size="10">addresses: [10.0.10.1]</text>
<line x1="235.0" y1="240" x2="235.0" y2="280" stroke="#000000" stroke-width="1.0" stroke-dasharray="4 3"/>
<rect x="180.0" y="280" width="110" height="28" rx="3" ry="3" fill="#ffe6cc" stroke="#d79b00" stroke-width="1"/>
<text x="235.0" y="298.0" text-anchor="middle" font-size="12" font-weight="bold">Integrated PHY</text>
<line x1="235.0" y1="308" x2="235.0" y2="417" stroke="#000000" stroke-width="1.0" stroke-dasharray="4 3"/>
<text x="175.0" y="366.5" text-anchor="end" font-size="11"><tspan font-weight="bold">master</tspan> | slave</text>
<text x="253.0" y="366.5" text-anchor="start" font-size="11"><tspan font-weight="bold">100baset1</tspan> | 1000baset1 | 10baset1s</text>
<rect x="180.0" y="417" width="110" height="28" rx="3" ry="3" fill="#d5e8d4" stroke="#82b366" stroke-width="1"/>
<text x="235.0" y="435.0" text-anchor="middle" font-size="12" font-weight="bold">ecu1_port1</text></svg>