<svg xmlns="http://www.w3.org/2000/svg" viewBox="0 0 910 660" width="910" height="660" font-family="Helvetica, Arial, sans-serif" font-size="12"><rect width="100%" height="100%" fill="#ffffff"/><rect x="15" y="30" width="880" height="280" rx="6" ry="6" fill="#dceaf7" stroke="#6c8ebf" stroke-width="1.5"/>
<text x="455.0" y="48" text-anchor="middle" font-size="14" font-weight="bold">ecu_variant_6_single_controller_multiple_iface_physical_ext_phy</text>
<rect x="40" y="65" width="830" height="225" rx="5" ry="5" fill="#cadcf2" stroke="#6c8ebf" stroke-width="1.2"/>
<text x="455.0" y="83" text-anchor="middle" font-size="13" font-weight="bold">ecu1_controller1</text>
<rect x="140.0" y="115" width="260" height="90" rx="4" ry="4" fill="#b6cded" stroke="#6c8ebf" stroke-width="1"/>
<text x="270.0" y="129" text-anchor="middle" font-size="11" font-weight="bold">ecu1_controller1_iface1</text>
<rect x="150.0" y="140" width="240" height="20" rx="1" ry="1" fill="#f8cecc" stroke="#b85450" stroke-width="1"/>
<text x="270.0" y="154" text-anchor="middle" font-size="10" font-weight="bold">ecu1_controller1_iface1_viface1</text>
<rect x="150.0" y="160" width="240" height="28" rx="1" ry="1" fill="#ffffff" stroke="#b85450" stroke-width="1"/>
<text x="156.0" y="178" text-anchor="start" font-size="10">addresses: [10.0.10.1]</text>
<rect x="336.0" y="167.0" width="58" height="22" rx="11.0" ry="11.0" fill="#f8cecc" stroke="#b85450" stroke-width="1.5"/>
<text x="365.0" y="182.0" text-anchor="middle" font-size="10" font-weight="bold">VLAN 10</text>
<rect x="510.0" y="115" width="260" height="90" rx="4" ry="4" fill="#b6cded" stroke="#6c8ebf" stroke-width="1"/>
<text x="640.0" y="129" text-anchor="middle" font-size="11" font-weight="bold">ecu1_controller1_iface2</text>
<rect x="520.0" y="140" width="240" height="20" rx="1" ry="1" fill="#e1d5e7" stroke="#9673a6" stroke-width="1"/>
<text x="640.0" y="154" text-anchor="middle" font-size="10" font-weight="bold">ecu1_controller1_iface2_viface1</text>
<rect x="520.0" y="160" width="240" height="28" rx="1" ry="1" fill="#ffffff" stroke="#9673a6" stroke-width="1"/>
<text x="526.0" y="178" text-anchor="start" font-size="10">addresses: [10.0.20.1]</text>
<rect x="706.0" y="167.0" width="58" height="22" rx="11.0" ry="11.0" fill="#e1d5e7" stroke="#9673a6" stroke-width="1.5"/>
<text x="735.0" y="182.0" text-anchor="middle" font-size="10" font-weight="bold">VLAN 20</text>
<rect x="375.0" y="230" width="160" height="40" rx="8" ry="8" fill="#fff2cc" stroke="#d6b656" stroke-width="1"/>
<text x="455.0" y="254.0" text-anchor="middle" font-size="12">virtual_switch</text>
<line x1="270.0" y1="205" x2="270.0" y2="230" stroke="#000000" stroke-width="1.0"/>
<line x1="270.0" y1="230" x2="375.0" y2="230" stroke="#000000" stroke-width="1.0"/>
<line x1="640.0" y1="205" x2="640.0" y2="230" stroke="#000000" stroke-width="1.0"/>
<line x1="640.0" y1="230" x2="535.0" y2="230" stroke="#000000" stroke-width="1.0"/>
<line x1="270.0" y1="310" x2="270.0" y2="340" stroke="#000000" stroke-width="1.0" stroke-dasharray="4 3"/>
<text x="282.0" y="329.0" text-anchor="start" font-size="11">mii | <tspan font-weight="bold">rmii</tspan> | sgmii | rgmii</text>
<rect x="240.0" y="340" width="60" height="28" rx="3" ry="3" fill="#ffe6cc" stroke="#d79b00" stroke-width="1"/>
<text x="270.0" y="358.0" text-anchor="middle" font-size="12" font-weight="bold">PHY</text>
<line x1="270.0" y1="368" x2="270.0" y2="617" stroke="#000000" stroke-width="1.0" stroke-dasharray="4 3"/>
<text x="210.0" y="496.5" text-anchor="end" font-size="11"><tspan font-weight="bold">master</tspan> | slave</text>
<text x="288.0" y="496.5" text-anchor="start" font-size="11"><tspan font-weight="bold">100baset1</tspan> | 1000baset1 | 10baset1s</text>
<rect x="215.0" y="617" width="110" height="28" rx="3" ry="3" fill="#d5e8d4" stroke="#82b366" stroke-width="1"/>
<text x="270.0" y="635.0" text-anchor="middle" font-size="12" font-weight="bold">ecu1_port1</text>
<line x1="640.0" y1="310" x2="640.0" y2="340" stroke="#000000" stroke-width="1.0" stroke-dasharray="4 3"/>
<text x="652.0" y="329.0" text-anchor="start" font-size="11">mii | <tspan font-weight="bold">rmii</tspan> | sgmii | rgmii</text>
<rect x="610.0" y="340" width="60" height="28" rx="3" ry="3" fill="#ffe6cc" stroke="#d79b00" stroke-width="1"/>
<text x="640.0" y="358.0" text-anchor="middle" font-size="12" font-weight="bold">PHY</text>
<line x1="640.0" y1="368" x2="640.0" y2="617" stroke="#000000" stroke-width="1.0" stroke-dasharray="4 3"/>
<text x="580.0" y="496.5" text-anchor="end" font-size="11"><tspan font-weight="bold">master</tspan> | slave</text>
<text x="658.0" y="496.5" text-anchor="start" font-size="11"><tspan font-weight="bold">100baset1</tspan> | 1000baset1 | 10baset1s</text>
<rect x="585.0" y="617" width="110" height="28" rx="3" ry="3" fill="#d5e8d4" stroke="#82b366" stroke-width="1"/>
<text x="640.0" y="635.0" text-anchor="middle" font-size="12" font-weight="bold">ecu1_port2</text></svg>