<svg xmlns="http://www.w3.org/2000/svg" viewBox="0 0 470 470" width="470" height="470" font-family="Helvetica, Arial, sans-serif" font-size="12"><rect width="100%" height="100%" fill="#ffffff"/><rect x="15" y="30" width="440" height="240" rx="6" ry="6" fill="#dceaf7" stroke="#6c8ebf" stroke-width="1.5"/>
<text x="235.0" y="48" text-anchor="middle" font-size="14" font-weight="bold">ecu_variant_1_single_controller_single_iface_ext_PHY</text>
<rect x="40" y="65" width="390" height="185" rx="5" ry="5" fill="#cadcf2" stroke="#6c8ebf" stroke-width="1.2"/>
<text x="235.0" y="83" text-anchor="middle" font-size="13" font-weight="bold">ecu1_controller1</text>
<rect x="60" y="100" width="350" height="130" rx="4" ry="4" fill="#b6cded" stroke="#6c8ebf" stroke-width="1"/>
<text x="235.0" y="118" text-anchor="middle" font-size="12" font-weight="bold">ecu1_controller1_iface1</text>
<rect x="80" y="135" width="310" height="20" rx="1" ry="1" fill="#c5a9c8" stroke="#7e5285" stroke-width="1"/>
<text x="235.0" y="149" text-anchor="middle" font-size="10" font-weight="bold">ecu1_controller1_iface1_viface1</text>
<rect x="80" y="155" width="310" height="28" rx="1" ry="1" fill="#ffffff" stroke="#7e5285" stroke-width="1"/>
<text x="86" y="173" text-anchor="start" font-size="10">addresses: [10.0.10.1]</text>
<line x1="235.0" y1="270" x2="235.0" y2="300" stroke="#000000" stroke-width="1.0" stroke-dasharray="4 3"/>
<text x="247.0" y="289.0" text-anchor="start" font-size="11">mii | <tspan font-weight="bold">rmii</tspan> | sgmii | rgmii</text>
<rect x="205.0" y="300" width="60" height="28" rx="3" ry="3" fill="#ffe6cc" stroke="#d79b00" stroke-width="1"/>
<text x="235.0" y="318.0" text-anchor="middle" font-size="12" font-weight="bold">PHY</text>
<line x1="235.0" y1="328" x2="235.0" y2="427" stroke="#000000" stroke-width="1.0" stroke-dasharray="4 3"/>
<text x="175.0" y="381.5" text-anchor="end" font-size="11"><tspan font-weight="bold">master</tspan> | slave</text>
<text x="253.0" y="381.5" text-anchor="start" font-size="11"><tspan font-weight="bold">100baset1</tspan> | 1000baset1 | 10baset1s</text>
<rect x="180.0" y="427" width="110" height="28" rx="3" ry="3" fill="#d5e8d4" stroke="#82b366" stroke-width="1"/>
<text x="235.0" y="445.0" text-anchor="middle" font-size="12" font-weight="bold">ecu1_port1</text></svg>